<?xml version="1.0" encoding="utf-8"?>
<!-- Generator: Adobe Illustrator 23.0.6, SVG Export Plug-In . SVG Version: 6.00 Build 0)  -->
<svg version="1.1" id="Layer_1" xmlns="http://www.w3.org/2000/svg" xmlns:xlink="http://www.w3.org/1999/xlink" x="0px" y="0px"
	 viewBox="0 0 200 200" style="enable-background:new 0 0 200 200;" xml:space="preserve">
<style type="text/css">
	.st0{clip-path:url(#SVGID_2_);}
	.st1{fill:#223F7D;}
	.st2{fill:#233C75;}
	.st3{fill:#214181;}
	.st4{fill:#243C78;}
	.st5{fill:#1B478D;}
	.st6{fill:#203060;}
	.st7{fill:#21376B;}
	.st8{fill:#1E4586;}
	.st9{fill:#213466;}
	.st10{fill:#213A6F;}
	.st11{fill:#1C2E5A;}
	.st12{fill:#213B71;}
	.st13{fill:#21386C;}
	.st14{fill:#1E458A;}
	.st15{fill:#22396F;}
	.st16{fill:#243C77;}
	.st17{fill:#1C4891;}
	.st18{fill:#1E4589;}
	.st19{fill:#1D4A97;}
	.st20{fill:#214180;}
	.st21{fill:#223C74;}
	.st22{fill:#233E7C;}
	.st23{fill:#1E4587;}
	.st24{fill:#394244;}
	.st25{fill:#244279;}
	.st26{fill:#1F4385;}
	.st27{fill:#1F3C6B;}
	.st28{fill:#1F4891;}
	.st29{fill:#1F4688;}
	.st30{fill:#244B84;}
	.st31{fill:#1E4993;}
	.st32{fill:#22457D;}
	.st33{fill:#1B4891;}
	.st34{fill:#214280;}
	.st35{fill:none;stroke:#EFCF6F;stroke-width:8.1497;stroke-miterlimit:10;}
	.st36{fill:none;stroke:#EFCF6F;stroke-width:6.1122;stroke-miterlimit:10;}
	.st37{fill:#EFCF6F;stroke:#EFCF6F;stroke-width:1.0205;stroke-miterlimit:10;}
	.st38{fill:#EFCF6F;stroke:#EFCF6F;stroke-width:3.0561;stroke-miterlimit:10;}
	.st39{clip-path:url(#SVGID_4_);}
	.st40{clip-path:url(#SVGID_6_);}
	.st41{fill:#EFCF6F;}
</style>
<g>
	<defs>
		<rect id="SVGID_3_" x="0" width="200" height="200"/>
	</defs>
	<clipPath id="SVGID_2_">
		<use xlink:href="#SVGID_3_"  style="overflow:visible;"/>
	</clipPath>
	<g class="st0">
		<defs>
			<rect id="SVGID_5_" x="-162.4" y="-48.6" width="918.3" height="292.7"/>
		</defs>
		<clipPath id="SVGID_4_">
			<use xlink:href="#SVGID_5_"  style="overflow:visible;"/>
		</clipPath>
		<g class="st39">
			<g>
				<g>
					<path class="st1" d="M21.3-51.6c11,0,22.1,0,33.1,0c2.4,2.3,1.9,5.4,1.9,8.2c0,3,1.2,4.5,4.3,4.4c6.6-0.2,12.4,3.4,19,3.4
						c2.9,0,4.5,2.4,4.7,5.3c0.6,8.2,3.5,16.1,2.3,24.5c-0.1,0.8-0.2,1.8,0.4,2.3c3.7,3.8,1.6,7-0.2,10.9c-1.8,3.8-4.1,5.5-8.1,5.4
						c-1.9-0.2-3.8-0.6-5.8-0.5c-1.6-0.9-3.4-0.8-4.7-0.6c0.9,0.3,2.5,0.3,3,2.1c-0.7,2.2-2.7,2.3-4.4,2.3c-3.5,0.1-6.7,1.1-9.7,2.9
						c-2.6,1.5-5.4,2.1-8.4,2.1C34.5,21.5,20.5,24,6.6,27.3c-2.7,0.7-5.5,0.4-8.2,0.6c-3,0.3-4.9,1.7-6.5,4.4
						c-4.6,7.8-9.3,15.5-10.8,24.8c-0.5,3.1-2.9,5.3-5.5,7.1c-4.2,2.9-8.1,6.2-7.6,12.1c0.2,2.6-3.7,4.6-1.8,6.9
						c1.4,1.7,4.7,0.5,7,1.2c2.2,0.7,3.6,2.3,4.2,4.4c0.9,2.7,2.5,3.9,5.4,3.9c5.4,0,8,3,10.4,7.8c3.3,6.6,7.2,12.9,12.4,18.4
						c4.9,5.1,7.9,11.8,11.7,17.8c1.5,2.3,2.5,5,5.6,5.7c2,2.5,3,5.6,4.3,8.5c1.6,3.7-0.3,6.9-4.3,8.6c-3.5-3.5-6.8-1.7-10.8-0.4
						C4.8,161.5-1.7,165.7-9,168c-3.5,0.8-6.9,2-10.3,2.8c-0.9,0.2-2,1-2.8,0.7c-5.6-2.6-9.8,0.5-14.4,2.9c-2.5,1.3-5.4,0.3-8.2,0
						c-4.5-0.4-8.4,0.1-10,5.4c-1,3.4-4.8,3.5-7.1,5.4c-3.4,2.8-7.7,3.4-11.4,5.2c-1.6,0.8-3.2,0.4-4.4-0.9
						c-1.3-1.3-1.5-2.9-0.7-4.5c2.5-4.7,3-9.9,4.4-14.9c0.2-0.6,0.2-1.4,0.6-1.8c5.5-5.8,4.8-13.5,6.1-20.5c1-5.1,3-9.8,5.3-14.5
						c3.5-7.3,5.7-15.1,8-22.9c1.4-4.5,2.1-9.2,4.1-13.5c0.9-1.8,1.3-4-1-5.1c-2.7-1.3-3.2,1.2-4.1,2.8c-3.3,5.9-3.7,6.3-10.3,5.2
						c-2.9-0.5-3.8,1.2-3.8,3.1c-0.2,6.2-3.9,9.9-9,12.2c-5.7,2.7-9.8,7.4-15,10.7c-3.9,2.5-6.7,6.1-8.4,10.4
						c-1.2,3-3.1,5.2-6.4,6.2c-2.8,0.9-5.1,2.7-7.3,4.8c-4.6,4.5-10.3,7.5-14.2,13c-3.5,4.9-9.8,6-15.3,8c-2.8,1.1-5.2-0.3-5.2-3.3
						c0.1-7.6-2-15-1.8-22.7c0.3-10.8,1.8-21.7,0.6-32.5c-0.3-2.5-1.1-4.5-2.9-6.5c-3.7-4-3.3-10.2,0.8-13.9c2.5-2.2,3.7-4.6,3.8-8
						c0.2-6.6,0.9-7.8,7.6-9.3c4.7-1,6.1-3.6,6.1-7.8c0-3.5,1.2-6.4,4.1-8.3c1.9-1.3,2.8-3.1,3.4-5.2c1.1-4.1,2.2-8.2,5.8-11
						c1.1-0.9,1.1-2.3,1.2-3.6c0.1-1.3-0.2-2.8,0.3-3.9c3.4-7.3,5.2-15.4,9.8-22.2c0.7-1.1,1.6-2,1.7-3.4c0.1-4.2,2.9-6.2,6.5-6.6
						c6.5-0.7,12.9-1.9,18.9,3.1c4.4,3.7,9.9,6.4,16.1,5.7c9.9-1.1,18.5,1.9,26.3,8c1.5,1.2,3.2,3.2,4.9,3c8.5-0.7,15.7,4.6,24,4.9
						c3.4,0.1,5.5-0.6,6.2-4.4c0.9-4.5,1.6-9.3,6.9-11.5C2.2,8.3,2,6.4,1.5,5c-3.1-9.1,0.8-17,5.1-24.3c2-3.4,2.9-6.5,2.5-10
						c-0.6-4.9,2.5-7.8,5.2-11c0.2-0.2,0.3-0.3,0.4-0.3c6.5,0.6,4.6-4.3,5-7.7C19.9-49.5,20.4-50.7,21.3-51.6z"/>
				</g>
				<g>
					<path class="st4" d="M21.3-51.6c0,3.1,0.1,6.2,0,9.3c-0.1,1.7,0.9,3.9-1.1,4.9c-2.2,1.1-2.4-2.1-3.9-2.6c-5.2,3.8-6.1,9-5.9,15
						c0.2,5-4.1,8.5-5.9,12.9C2.5-7.1,1.5-2.2,2.9,3.1c1,3.6,3,7.4-3.3,8.4c-2.8,0.4-2.9,3.6-3.5,5.9c-1,4.1-0.3,9.5-7,8.9
						c-4.2-0.4-8.9,1.7-12.4-2.3c-1-1.2-2.4-1.9-3.9-1.6c-8.3,2-14.2-3-20.1-7.3c-4.3-3.1-8.8-4.5-14-4.4c-2.6,0.1-5.2-0.1-7.8,0
						c-7,0.3-12.3-3.4-17.3-7.4c-3.6-2.9-17.1-3.2-20.2,0.1c-0.2,0.2-0.6,0.6-0.5,0.8c2.2,7.4-9,10.3-6.1,17.9
						c0.2,0.4-0.4,1.3-0.8,1.7c-4.8,3.6-5.2,8.6-4.8,14c0.1,1.1,0,2.6-1.1,3c-4.3,1.7-4.8,5.7-5.7,9.4c-0.8,3.4-1.8,6.4-5.6,7.8
						c-2.5,1-2.3,3.7-2.2,6c0.1,5.1-0.5,9.1-7.2,9.5c-4.5,0.3-7.6,2.8-6.5,8.4c0.7,3.8-0.8,6.8-4.6,8.7c-2.4,1.2-3.7,9-1.7,10.3
						c6.8,4.4,5.6,11.5,5.1,17.5c-0.5,6.8,0.3,13.7-0.8,20.3c-1.4,8.7,1.9,17,1.2,25.5c-0.2,2.6,1.1,3.9,3.5,2.3
						c4.1-2.7,9.8-2.3,13-6.7c0.5-0.7,2.1-0.8,2.3-1.5c2.5-7.7,10.2-10.1,15.6-14.3c5.5-4.3,11.2-7.6,14-14.5c0.8-1.9,3-3.5,4.8-4.7
						c7-4.7,13.1-10.8,21-14.2c2.1-0.9,2.7-3.2,2.6-5.4c0-2.2,0.4-4.2,1.3-6.1c0.9-2.1,2.3-2.9,4.7-1.7c5.8,2.7,6.3,2.4,8.9-4
						c2.1-5.2,5.3-6.1,8.4-2.4c1.6,1.9,1.5,4,0.3,5.9c-3.7,6-3,13.3-6.1,19.3c-3.5,6.7-3.4,14.5-8.1,20.8
						c-3.5,4.7-3.6,11.3-4.4,17.2c-0.7,4.8-0.1,9.7-4.8,13.6c-2.2,1.8-2.3,6.5-2.8,10c-0.4,2.8-0.7,5.4-2.8,7.5
						c-0.9,0.9-1.2,1.9-0.3,3c0.9,1.1,2,1.6,3.4,0.9c5.4-2.6,10.8-5.1,16.1-7.8c1.2-0.6,1.8-1.8,1.9-3.2c0.3-4.4,3.3-5.6,7-5.8
						c1.9-0.1,4-0.3,5.8,0.3c4.1,1.5,7.3,0.2,10.3-2.5c2.5-2.2,4.9-3.9,7.9-0.7c1.2,1.3,2.7,0.5,4.1,0.1c3.9-1.1,7.8-2.1,11.7-3.1
						c0.4,2.9-1.7,3.6-3.7,4.1c-9.5,2.5-18.8,5.5-27.7,10c-1.2,0.6-2.4,1-3.7,0.9c-10.3-0.9-17.6,6.2-26.2,9.8
						c-0.4,0.3-0.8,0.6-1.3,0.8c-5,2.4-9.8,1-13.9-1.6c-9.9-6.1-20.7-8.4-32-9.2c-2.7-0.2-5.4-1.1-7.8-2.5c-2.8-1.6-6.1-1.6-9-2.4
						c-6.2-1.6-12.3-4-18.4-6c-2-0.6-2.7-2.9-2.1-5c1.3-4.9-0.6-9.3-2.1-13.7c-1.1-3.1-2.1-6.2-1.9-9.5c0.6-10.4-1.9-20.6-2.9-30.9
						c-0.3-2.8-1.2-5.3-3.1-7.5c0-30.8,0-61.7,0-92.5c1.5-1.7,3.5-1.5,5.4-1.4c7.1,0.4,13.7-1.2,20.5-3.3
						c12.5-3.8,25.5-5.8,37.8-10.3c2.7-1,5.8-0.4,9.3-0.7c-2.8-3.2-0.9-4.7,1.9-5.7c0.9-0.3,2-0.8,2.2-1.7
						c1.6-6.9,8.4-8.6,12.7-12.7c3.5-3.4,7.7-2.7,11.6,0c1,0.7,2.2,2,3.4,1.1c1.3-1,0-2.4-0.3-3.6c-1.3-4.6,1.7-11,6.1-13
						c0.9-0.4,2.1-0.9,2.7,0c1.9,3.1,5.3,3.4,8.2,4.8c2.5,1.2,2.8,3.8,2.9,6.3c0.2,5.7,0,11.4,0.1,17C-40-6-39-5.1-33.5-4.8
						c1.8,0.1,3.6,0,5.3,0.2c5.2,0.7,7.6,3.4,7.3,8.4c-0.2,4.6-2.2,6.4-7.7,6.7c-2.3,0.1-4.5-0.1-6.8,0.2c-1,0.1-2,0.5-2,1.7
						c0,1.1,0.9,1.7,1.9,1.9c3.2,0.5,6.6,0.8,9.7-0.2c3.9-1.2,6.6-0.1,8.8,3.1c0.5,0.7,1.1,1.2,1.7,1.7c3.5,3,4.6,2.7,6.2-1.4
						c2.3-5.5,4.5-11,5-17.2c0.5-5.4,3.6-10,5.8-14.9c1.8-4.2,3.5-8.4,4.1-12.9c0.9-7.2,4.8-13.8,4.2-21.3c-0.1-1.2,0.7-2.1,1.5-2.9
						C14.8-51.6,18.1-51.6,21.3-51.6z"/>
				</g>
				<g>
					<path class="st5" d="M447.8,27c-5-2.4-7.7-7.2-7.2-12.5c0.3-3.9,2.7-6,7.1-6.6c4.4-0.5,8.6,0.5,13.1,1.2
						C454.4-1.8,445.2-6,432.9-6c-25.6,0.1-51.2,1.2-72.3,0.6c17-0.3,38.5,0.5,60,0.5c5.8,0,8.1,1.7,8.5,5.9c0.7,6.3-1.7,9.8-7.5,11
						c-3.5,0.7-7.1,0.8-10.6,0.2c-2.3-0.4-4.5-0.5-6.8-0.5c-5.7,0.1-6.7,1-6.8,6.9c-0.1,3.8-0.6,7.4-1.6,11
						c-0.4,1.4-1.1,2.4-2.6,2.8c-1.8-0.1-2.6-1.2-3.1-2.7c0.2-2.6-1.9-1.1-2.9-1.6c-1.6-0.4-2.2-1.5-1.7-2.9
						c1.1-3.1-0.3-4.8-2.9-6.1c-0.9-0.4-1.6-1.2-1.9-2.2c-1.3-5.1-5-5.6-9.4-5.4c-4.9,0.2-9.7,0-14.6,0.1c-3,0.1-4.9,1.1-5.4,4.4
						c-0.4,2.2-1,4.9-3.9,4.8c-2.9-0.2-3.9-2.8-4.2-5.3c-0.7-5.5-0.9-11.1,0-16.5c0.6-3.6-0.6-4-3.6-4.1c-6.8-0.3-13.2-2.8-20-3.6
						c-2.9-0.3-4.4-2.7-4.5-5.6c-0.1-1.7,0.5-3.9-2.5-3.5c-2.5,0.4-5.8-1.2-6.9,2.7c-0.1,0.5-0.2,1-0.3,1.4c-0.9,3-0.3,7.3-3.9,8.3
						c-4.6,1.4-9.8,2-14.2-0.5c-4.5-2.6-9-2.2-13.7-2c-1.4,0-2.6,0.6-3.1,2c-1.2,3.8-4.2,4.5-7.6,4.8c-3.2,0.3-6.5,0.5-9.4,2.1
						c-2.5,0.7-5.1,0.9-7.6,1.7c-1.5,0.5-3.3,0.9-3.9,2.6c-2.1,5.9-8,6.7-12.5,9.3c-2.8,1.6-4.6,0.1-5.3-2.8
						c-0.6-2.4-0.2-5.8-3.4-6.4c-3.5-0.7-7.2,0.1-10.1,2.4c-5.7,4.4-11.9,5-17.7,0.9c-3.1-2.1-6.3-2.5-9.7-2.1c-10,1.2-20,1.9-30,2
						c-4.4,0-8.8,0.5-11.8,4.5c-1.2,1.5-3.1,1.8-4.9,1c-2.2-0.9-3.1-2.6-2.2-5c-1.3,0.3-2,0.7-2.5,1.2c-3.7,3.9-6.8,5.3-11.8,0.9
						c-2.3-2.1-7.4-3.8-11.1-0.2c-6.2-2.8-8-11-3.5-16.7c2.2-2.8,4.5-5.5,6.3-8.6c2.1-3.7,2.9-7.5,2.3-11.7c-0.3-2.1-0.4-4.2,0-6.3
						c1.5-7.5,3-8.7,10.5-7.6c2.8,0.4,5.5-0.6,8.2-0.7c3.6-0.2,7.5-0.5,8.3,4.4c0.2,1.3,0.3,0.5,0.8,0.2c3.1-2,5,0,6.3,2.4
						c1.5,2.6,3.5,3.5,6.4,3.5c6,0.1,11.7,2.5,17.9,1.4c2.3-0.4,4.5,1.2,5.6,3.3c1.7,3.1,4.2,4.3,7.6,4.1c4.1-0.2,7.7,0.6,9.8,4.8
						c0.8,1.7,2.5,2,4.2,2c5.5,0,11,1.3,16.5,1.1c4.4-0.2,8,1.1,9.5,5.8c0.6,2,2.1,2.8,4.1,2.8c4.4,0,8.7,0.9,13,1.8
						c5,1,9.8-0.1,13.4-4.1c5.8-6.5,13.6-11.1,17.9-19.1c0.9-1.7,2.6-2.4,4.4-2.7c3-0.5,5.9-1.6,8.9-2.3c3.8-0.9,4.3-2.7,1.7-5.6
						c-3.6-4.1-3.5-9.3,0-14.7c8.8,0,17.5,0,26.3,0c3.4,5.6,1.9,13.1,7.2,18.1c1,1,0.5,3.7,0.5,5.6c0,3,0.3,5.8,3.2,7.6
						c1.5,0.9,1.8,2.2,1.1,3.8c-1.8,3.8,0.7,4.9,3.5,5.7c5,1.5,9.9,0.2,14.9,0.2c23.8-0.3,47.7-0.6,71.5,0.2
						c6.6,0.2,13.2-0.6,19.8-0.4c6.6,0.2,12.7,2.1,18.7,4.7c1.1,0.4,2.2,1,2.4,2.2c0.8,3.9,3.6,5.5,7.1,6.4c0.9,0.2,2.3,0.8,2.4,1.4
						c1.6,7.4,7.9,10.3,13.1,14.3c3.2,2.4,1.6,6,1.9,9.1"/>
				</g>
				<g>
					<path class="st8" d="M289.2-51.6c0.1,2.1-0.5,4.2-0.8,6.2c-0.4,3.1-1.2,6.6,3.3,7.9c1.4,0.4,2.7,1.8,2,3.4
						c-0.9,2.3-2.7,4.7-5.2,4.6c-3.9-0.2-6.9,2.7-10.8,2.3c-1.3-0.2-2.1,0.7-2.6,1.8c-4.2,9.6-13.5,14.5-20.3,21.7
						c-3.3,3.5-8.9,3.7-13.4,2.2c-4-1.3-7.9-1.5-11.9-1.5c-3.2,0-5.4-1-5.6-4.5c-0.2-3-2.1-4.4-4.9-4.2c-6.7,0.5-13.2-1.4-19.8-1
						c-2.8,0.2-4.9-0.6-5.6-3.4c-0.8-3.3-3.1-3.6-5.9-3.5c-4.8,0.3-9.4,0.6-11.2-5.7c-0.8-2.7-4-2.3-6.4-1.8
						c-6.9,1.6-13.3-2.3-20.1-1.7c-1.5,0.1-2.1-1.8-2.6-3.2c-0.6-1.7-1.1-3.8-3.2-3.7c-2.4,0.1-2.6,2.5-3.3,4.5
						c-0.4-0.5-0.9-0.8-0.9-1.1c-0.1-6.7-2.3-8.5-8.8-6.4c-3,1-5.6,0.9-8.4,0.1c-3.3-1-4.8-0.3-6.2,3.5c-1.9,5,0.3,9.5-0.4,14.2
						c-0.8,5.7-3.8,10.1-7.2,14c-5.7,6.6-6,10.5,0.1,17.3c1.5-1.2,3.3-1.7,4.6,0c1,1.5-0.7,2-1.8,2.6c-5.5,0.7-9.3-3.3-13.6-5.5
						c-1.6-0.8-3-2.7-5.1-3.8c-2.8-1.5-1.6-4.4,0.6-5.5c12.7-6.5,11.8-19.2,14.2-30.3c0.6-2.7,1.3-4.9,3.3-6.7
						c6.4-5.9,13-11.1,22.2-11.4c1.1,0,2.1-0.8,2.9-1.7C187.3-51.6,238.2-51.6,289.2-51.6z"/>
				</g>
				<g>
					<path class="st10" d="M-164.7,9.7c10,1.2,18.6-4.4,28.2-5.4c0.3,0,0.7-0.2,0.9-0.4c4.5-6.7,11.3-4.6,17.6-4.9
						c6.8-0.3,12.4-2.4,18.2-7c5.6-4.5,11.2-9.3,17.4-13.3c5.6-3.6,10.8-7.9,16.4-11.8c2.1-1.5,3.8-3.4,6.5-4.1
						c1.1-0.3,2.2-1.1,2.5-2.1c1.3-5.5,5.8-6.9,10.2-8.5c1.8-0.7,3.7-1.3,3.9-3.8c18.2,0,36.4,0,54.6,0c0.2,13.9-3.5,26.9-9,39.4
						C-0.1-5.9-2.6,0.3-3.3,7.4C-3.9,12.7-7,17.7-9.1,22.7c-0.8,1.8-2.4,1.6-3.7,0.6c-2.4-1.9-5.3-3.2-6.6-6.2
						c-0.9-2.2-2.3-2.7-4.6-1.5c-3.9,2.1-8.3,0.9-12.4,0.8c-2.4-0.1-3.6-2-3.5-4.4c0.1-2.6,1.8-3.2,4-3.2c2.8,0,5.5-0.1,8.3,0
						c2.8,0.1,5.2-0.2,5.3-4c0.1-3.6,0.2-7.1-4.6-7.6c-2.1-0.2-4.2-0.1-6.3-0.1c-7.2,0-8.6-1.3-8.6-8.4c0-6.2,0-12.3,0-18.5
						c0-2.7-1-4.5-3.9-4.2c-3.7,0.3-5.8-1.4-6.2-5.7c-2.5,2.8-4.5,5-6.5,7.4c-1.7,2-0.7,4,0.5,5.8c1.2,1.8,2.6,3.9,0.7,5.6
						c-2.3,2-4.4,0.4-6.4-1.3c-4.4-3.8-8-3.5-11.6,0.9c-0.6,0.7-1.1,2-1.8,2.2c-5,1.1-7.6,4.2-8.6,9.2c-0.6,3.1-4.2,1.5-6.1,2.9
						c0.1,0.4,0.2,0.8,0.4,0.9c1.3,0.8,4.3-0.2,4,2.4c-0.3,2-2.7,2-4.5,1.9c-8.9-0.6-16.9,2.4-24.8,5.8c-3.4,1.5-7.2,1.6-10.9,2.1
						c-1.8,0.2-3.7,0.3-5.2,1c-10.1,4.8-20.9,5.5-31.8,4.9C-164.7,11-164.7,10.4-164.7,9.7z"/>
				</g>
				<g>
					<path class="st4" d="M136.3-51.6c-0.6,2.8-2,3.6-5.2,3.5c-4.9-0.1-8.8,3.5-13,5.7c-2.8,1.4-4.9,4.1-7.3,6.3
						c-1,0.9-1.6,2.1-1.4,3.5c0.9,10.2-4.3,18.9-7.2,28.2c-0.6,1.8-2.2,2.3-3.8,2.5c-1.8,0.3-3.4,1-4.7,2.3
						c-0.7,0.7-1.2,1.6-0.4,2.6c0.7,0.8,1.6,0.9,2.6,0.5c1.3-0.5,1.9-3.6,3.8-1.7c1.9,1.9-0.9,3.3-1.6,5c4.9,1,8.4,4.6,13,5.9
						c6.5-2.2,10.5,2,14.6,5.8c4.4,2.8,9.7,3.7,13.9,6.8c1.5,1.1,4.4,1.7,2,4.5c-2.6,0.9-4.7-0.6-6.9-1.6
						c-11.4-5.4-22.9-10.7-34.2-16.4c-4.2-2.1-7.6-1.8-11.3,0.9c-3,2.2-6,4.4-9.2,6.4c-1.8,1.1-3.5,2.5-5.8,2.3
						c-0.5-0.1-1-0.3-1.4-0.5c-3.3-5.3-1.6-8.3,5.1-9.2c7,1,6.4-6.4,10.1-9.2c1.4-1,0.1-2.7-1.4-3.3c-1.8-0.7-2.5-1.9-2-3.8
						c2.5-9.1-2.3-17.7-1.9-26.7c0.1-2.3-2-2.9-3.9-2.7c-7.4,0.9-13.8-4.5-21.4-3.1c-2.1,0.4-2.8-1.7-2.8-3.7c0-3.6,0-7.1,0-10.7
						C81.7-51.6,109-51.6,136.3-51.6z"/>
				</g>
				<g>
					<path class="st13" d="M-120.9,182.2c9.6,1.2,18.9,3.6,28.1,6.6c5.7,1.9,11.3,4.9,17.7,4.1c1.6-0.2,3.4,0.3,3.9-2c0,0,0,0,0,0
						c9.2-3,17-10,27.5-9.4c4,0.3,7.1-2.9,10.7-4.3c6.9-2.6,13.7-5.5,21-7.3c4-1,8.3-3.4,11.8-6.2c2.4-1.9,5.1-3.4,8.5-3
						c2.6,0.3,4.5-1.6,6.7-2.4c2.5-0.9,5-1.7,7.3,0.4c4.3-1.3,4.8-5,3.3-7.9c-1.2-2.5-2.1-5.2-3.3-7.6c-2.4-1.9-2.9-4.6-2.8-7.4
						c0.5-10.9-2.1-21.6-2.5-32.4c-0.4-10-1.4-20-2-30c-0.3-1.4-0.1-2.8,0-4.2c-0.3-2.2-1.1-4.4-0.7-6.7c0.6-4.2,2.9-6.5,7.1-6.9
						c0.5,0.2,1,0.6,1.2,1.1c-5.1,7.5-2.3,15.5-1.6,23.4c1.3,15.8,2.8,31.6,4.3,47.4c0.4,4.2,1.1,8.3,1.2,12.6
						c0,4.6,2.6,7.8,6.2,10.4c0.6,0.8,1,1.7,1.1,2.8c-0.5,1.8,0.4,2.6,2,3.1c1.6,0.5,2.9,1.4,2.9,3.3c-0.8,2.6-3.1,2.5-5.1,2.6
						c-6.7,0.5-8.7,2.6-8.8,9.1c-0.1,4.9-0.4,9.8-4.7,13.2c-1.2,1-1.6,2.5-1.5,3.9c0.3,5.4-1.6,10.5-2.5,15.8
						c-0.2,1.1-0.4,2.3-0.9,3.3c-4.1,6.8-6.5,14.2-7.8,22.1c-0.6,3.9-2.1,7.7-2.6,11.8c-0.2,1.8-0.4,3.6-1.9,4.8c-12,0-24,0-36.1,0
						c-3.3-2.7-6.3-5.4-7.6-9.7c-0.4-1.5-1.6-3-2.9-3.8c-4.9-3.3-9.2-7.1-12.1-12.3c-2.7-4.8-7.7-7.3-10.9-11.6
						c-1.9-2.6-4.1-4.8-4.9-8.2c-0.5-2.5-3-3.9-5.5-4.3c-9.1-1.4-17.8-4.7-26.7-6.8C-109.6,188.1-116.2,186.9-120.9,182.2z"/>
				</g>
				<g>
					<path class="st14" d="M16.3,73.2c1.7,18.9,3.5,37.7,5,56.6c0.4,4.5-0.5,9,1,13.4c-2.1,0.2-3.8-0.3-4.7-2.5
						c-2.7-6.8-7-13.1-11.5-18.4c-4.8-5.6-8.3-12-13-17.5c-1-1.1-1.9-2.2-2-3.8c-0.4-5.3-3.7-6.9-8.4-6.5c-3.8,0.3-6.3-0.5-6.7-4.9
						c-0.4-4-3.4-4-6.5-4c-2.1,0-4.9,1.3-6.2-1.3c-1.3-2.5,0.9-4.1,2.3-5.9c0.6-0.7,1.2-1.9,1-2.6c-2.1-7.1,3.4-10.2,7.7-13
						c3.3-2.1,5.4-4.5,5.6-7.9c0.6-10.3,8.1-17.4,11.7-26.3c1.3-3.2,5.1-2.7,7.9-2.7c3.7,0,7.1-1.3,10.7-1.8
						c12.8-1.7,25.3-5.3,38.3-4.8c3,0.1,5.9-0.1,8.2-2.1c4.2-3.6,9.7-1.8,14.3-3.7c-0.4-1.7,0.8-1.8,2-1.9c1.6-1.1,3.3-1,4.9,0
						c-0.8,0.5-1.6,1.1-2.4,1.5c-3.6,1.4-3.4,4.1-2.6,7.1c-4.2,1.5-7.4,3.9-10.4,7.6c-3.7,4.5-9,8-14.2,11.1c-1.4,0.8-3.3,1.4-5,0.4
						c-0.5-0.4-0.7-1.1-1.3-1.4c0.1,0.6,0.9,0.7,1.1,1.2c0.8,1.1,0.8,2.7-0.2,2.9c-3.4,0.8-5.1,4.8-9.3,4.3
						c-2.1-0.3-4.4,0.9-5.7,3.1c-1.6,2.9-4.2,4.9-6.7,6.9c-4.4,1.2-5.5,4.4-5.3,8.4c0.1,1.4,0.3,2.9,0.5,4.3
						C15.4,70.4,14.6,71.8,16.3,73.2z"/>
				</g>
				<g>
					<path class="st12" d="M22.3,158.8c-2.8-0.1-5.5,0-7.8,1.9c-0.7,0.6-1.8,1.1-2.7,1.1c-8.8-0.8-14.7,5.5-21.7,9
						c-2.8,1.4-6.1,0.5-8.9,1.9c-5.9,2.9-11.9,5.7-17.8,8.6c-2.4,1.2-4.8,2.1-7.4,1.9c-4.3-0.3-8.4,0.4-12.1,2.6
						c-4.6,2.8-9.9,3.7-15,5.2c0.2-0.3,0.3-0.7,0.5-0.8c7-3.4,13.4-8.8,21.3-9.6c5.1-0.5,9.9-1.6,14.3-3.8c6.7-3.4,14-4.8,21-7.1
						c2-0.6,4.1-1,5.2-3c7.2-3.3,14.4-6.3,21.5-9.8C18.1,154.1,20.1,154.3,22.3,158.8z"/>
				</g>
				<g>
					<path class="st4" d="M73,11.7c-0.7,0.6-1.3,1.3-2,1.9c-2.4-0.4-4.7-0.9-7.1-1.3c-0.2,0-0.4-0.4-0.6-0.6
						C68.9,9.6,70.2,9.6,73,11.7z"/>
				</g>
				<g>
					<path class="st19" d="M194.8,128.5c-1.9-1.5-3.5-1.7-3.5,1.5c0,1.5,0,3.1,0,4.6c0.1,5.8-2.9,10.8-7.5,12.9c-4,1.7-6,0.6-7-3.9
						c0-0.8,0.2-1.6,0.6-2.3c3.6-2.1,7.3-4.2,8.4-8.7c0.8-3.3,2-6.7-2.4-8.6c-0.9-0.4-1.3-1.4-1.6-2.4c0.6-11.5-2.6-22.6-3.7-33.9
						c-1.2-12.3-2.1-24.7-1.8-37.2c-3.9-7.3-9.6-12.3-18-13.7c-0.6-0.1,0,0.3-0.4-0.2c-5.9-6.9-15.6-7.5-22.2-13.4
						c-2.8-2.6-7.4-2.8-11.2-4.1c-2.4-0.1-3.1-2.5-4-3.7c-2.6-3.7-6.7-0.9-9.5-2.9c0.6-0.4,1.2-0.9,1.8-1.3
						c-1.1-1.3-2.5-0.4-3.7-0.7c-0.1-2.5,1.4-3,3.4-2.8c3,0.3,6.1,0.7,9.1,1c1.1,0.1,1.9,0.7,1.8,1.9c-0.2,1.7,0.6,2.5,2.1,2.6
						c1.4,0.1,2.2-0.9,3-2c2.8-4,5.6-4.8,9.7-3.1c-0.2,1.9-3.7,1.3-2.9,3.6c0.3,0.8,1.8,1.4,2.8,1.6c2.1,0.5,2.6-1.2,3.3-2.8
						c0.9-2,2.8-2.5,4.8-2.8c4.2-0.6,8.3-1.2,12.6-1c9.1,0.5,18-1.5,27-1.9c3.5-0.1,6.5,0.4,9.1,3.4c2.8,3.1,11.1,1.7,14.2-1.4
						c3.4-3.4,8.3-3.8,12.6-3.3c3.9,0.5,4.2,4.3,4.2,7.7c0,1.1-0.2,2.4,1.1,2.9c1.1,0.4,1.9-0.3,2.5-1.1c1.2-1.8,3.1-2.1,5-2.6
						c1.7-0.4,3.9-0.6,4.4-2.6c1.9-7.9,8.5-7.1,14.3-7.9c3.4-1.3,6.7,0.2,10.1,0c3-0.2,5.4-0.8,7.6-3.4c4.1-5,10-3.9,15.4-2.9
						c6,1.1,11.8,1.3,17.7-0.1c11-2.4,22-3.3,32.9,1c2.4,1,3.5,2.8,3.8,5.2c0.9,7.6-0.1,15.2,0.1,22.8c0.1,4.2-4.3,3.6-6.8,5
						c-1.8,1,3.5,3.3,1.8,4.5c1.5,1.5-2.8-1-1.7,1.2c1.1,2.1,1.7,4.2,1.2,6.6c-1,5.7-1.3,11.5-0.9,17.3c-0.4,6.6-3.1,11.8-8.9,15.2
						c-0.5,0.3-0.5,1.1-0.8,1.7c-0.7,1.2,4.5,1.6,3.3,1.9c-1.6,2.1-0.2,4.4-0.7,6.6c0,16.9,0,33.8,0,50.7c0,0.5-0.1,1.1-0.1,1.7
						c-1.6,3.3,0.7,13,0.1,16.3c-0.5,5.2,3.1,8.9-1.2,11.6c-3,1.1-18,1.8-20.3,0.5c2.1,2.4,1.6,1.5-1.6,2c-1.9,0.3-16.7,0.2-18.6,0
						c-10.1-2.4-6.2-13.7-6.8-26.2c-0.9-17.3-0.2-34.7-0.2-52c0-2.5,6.3,20.8,5.5,18.4c-0.3-0.7-0.5-1.4-1-2
						c-2.2-1.4-2.9,0.1-3.5,1.7c-0.6,1.7-0.5-22.1-0.5-20.3c0,18.8,0.2,37.6-0.1,56.4c-0.1,6.3,1.6,11.8,5.4,16.7
						c0.4,0.3,0.7,0.7,1,1.1c0.7,1.8,2.3,2.9,3.4,4.3c0.6,3.5-2.2,3.3-4.3,3.9c-2.1,0.6-4.4,1.5-5.4-1.3c-0.8-2.1-0.7-0.5-1.3,0
						c-3.1,2.7-5.9,0.4-8.4-1c-2.8-1.5-1.8-4-0.1-6.2c-3.7-0.2-7.3,0.8-10.8-0.5c-0.4-0.3-0.6-0.6-0.8-1c-3.1-2.2-6.6-0.7-9.9-1.2
						c-5.5-0.8-11.2,0.6-16.8-0.7"/>
				</g>
				<g>
					<path class="st19" d="M45,162.9c-1.9-1.5-3.3-4.5-3.2-1.2c0,1.5-1.5-6.2-1.5-4.6c0.1,5.8-2.9,10.8-7.5,12.9c-4,1.7-6,0.6-7-3.9
						c0-0.8,0.2-1.6,0.6-2.3c3.6-2.1,7.3-4.2,8.4-8.7c0.8-3.3-7.2-4.4-11.6-6.3c-0.9-0.4-3.5-9.4-3.8-10.4
						c0.6-11.5-0.5-19.9-1.6-31.2c-1.2-12.3-4.6-19.5-4.4-31.9c-3.9-7.3,2.2-14.5-6.2-15.9c-0.6-0.1,0,0.3-0.4-0.2
						c-5.9-6.9-15.6-7.5-22.2-13.4c-2.8-2.6-7.4-2.8-11.2-4.1c-2.4-0.1-3.1-2.5-4-3.7c-2.6-3.7-6.7-0.9-9.5-2.9
						c0.6-0.4,1.2-0.9,1.8-1.3c-1.1-1.3-2.5-0.4-3.7-0.7c-0.1-2.5,1.4-3,3.4-2.8c3,0.3,6.1,0.7,9.1,1c1.1,0.1,1.9,0.7,1.8,1.9
						c-0.2,1.7,0.6,2.5,2.1,2.6c1.4,0.1,2.2-0.9,3-2c2.8-4,5.6-4.8,9.7-3.1c-0.2,1.9-3.7,1.3-2.9,3.6c0.3,0.8,1.8,1.4,2.8,1.6
						c2.1,0.5,2.6-1.2,3.3-2.8c0.9-2,2.8-2.5,4.8-2.8c4.2-0.6,8.3-1.2,12.6-1c9.1,0.5,18-1.5,27-1.9c3.5-0.1,6.5,0.4,9.1,3.4
						c2.8,3.1,11.1,1.7,14.2-1.4c3.4-3.4,7.3-13.4,11.7-12.9c3.9,0.5,7.4-5,7.3-1.6c0,1.1,6-3.4,7.4-2.9c1.1,0.4,3.3-0.9,3.9-1.8
						c1.2-1.8,0.8,1.2,2.7,0.8c1.7-0.4,5.4-0.8,5.8-2.8c1.9-7.9,1.9,3.5,7.7,2.8c3.4-1.3,5.6,6.8,9,6.6c3-0.2,4,4.1,6.2,1.5
						c4.1-5,10-3.9,15.4-2.9c6,1.1,11.8,1.3,17.7-0.1c11-2.4,22-3.3,32.9,1c2.4,1,3.5,2.8,3.8,5.2c0.9,7.6-0.1,15.2,0.1,22.8
						c0.1,4.2-4.3,3.6-6.8,5c-1.8,1,3.5,3.3,1.8,4.5c1.5,1.5-2.8-1-1.7,1.2c1.1,2.1,1.7,4.2,1.2,6.6c-1,5.7-1.3,11.5-0.9,17.3
						c-0.4,6.6,10.5,12.3,4.8,15.8c12.1,4.5-1.3,4.2-1.6,4.8c-0.7,1.2,2.8,2.4,1.6,2.7c-1.6,2.1,2.2,24.4,1.8,26.5
						c0,16.9-13.6,9.4-13.7,26.3c0,0.5-0.1,1.1-0.1,1.7c-1.6,3.3,0.7,13,0.1,16.3c-0.5,5.2,3.1,8.9-1.2,11.6c-3,1.1-18,1.8-20.3,0.5
						c2.1,2.4,1.6,1.5-1.6,2c-1.9,0.3-16.7,0.2-18.6,0c-10.1-2.4-6.2-13.7-6.8-26.2c-0.9-17.3-0.2-34.7-0.2-52
						c0-2.5,6.3,20.8,5.5,18.4c-0.3-0.7-0.5-1.4-1-2c-2.2-1.4-2.9,0.1-3.5,1.7c-0.6,1.7-0.5-22.1-0.5-20.3c0,18.8,0.2,37.6-0.1,56.4
						c-0.1,6.3,1.6,11.8,5.4,16.7c0.4,0.3,0.7,0.7,1,1.1c0.7,1.8,2.3,2.9,3.4,4.3c0.6,3.5-2.2,3.3-4.3,3.9c-2.1,0.6-4.4,1.5-5.4-1.3
						c-0.8-2.1-0.7-0.5-1.3,0c-3.1,2.7-5.9,0.4-8.4-1c-2.8-1.5-1.8-4-0.1-6.2c-3.7-0.2-2.1,7.3-5.6,6c-0.4-0.3-7.4,3.1-7.6,2.8
						c-3.1-2.2-9.4-5.2-12.7-5.7c-5.5-0.8-6.8-5.1-12.4-6.5"/>
				</g>
				<g>
					<path class="st8" d="M121.8-2c2.3,0.2,5.1-0.5,7.7,1c1,0.6,1.9,1.3,1.7,2.6c-0.2,1.3-1.1,2-2.3,2.1c-4,0.4-7.9,1.4-12,1.1
						c-2.4-0.2-4.3-1-4.2-3.5c0.1-2.6,2-3.4,4.4-3.3C118.5-1.9,119.9-2,121.8-2z"/>
				</g>
				<g>
					<path class="st8" d="M168.1,1.7c-5.2,0-10.5,0-15.7,0c0-0.1,0-0.3,0-0.4c5.2,0,10.5,0,15.7,0C168,1.4,168,1.6,168.1,1.7z"/>
				</g>
				<g>
					<path class="st20" d="M412,246.3c-27.2,0.1-54.4,0.2-81.6,0.2c-27,0-54.1-0.1-81.1-0.2c-1.6-1-3.4-0.8-5.2-0.8
						c-4.4-0.1-8.7-0.4-12.6-2.7c-3.7-2.1-8-1.6-11.9-1c-4.5,0.6-8.5,0-12.8-1.3c-13.3-3.9-27.1-4.3-40.9-3.7
						c-1.5,0.1-2.8,0.6-3.7,1.9c-4.1,5.7-10.2,4-15.6,3.9c-3.1,0-3.6-2.8-1.1-5c0.8-0.8,1.9-1.3,2.2-2.5c1.3-3.8,4.2-5,8-5.1
						c1.9,0,4.7,0.5,4.7-2.7c0-2.8-2.4-2.7-4.5-3.4c-7-2.5-11.1,1.8-15.4,5.9c-3.1,3-5.3,3-8.4,0.3c-4.1-3.6-4.6-5.9-2.1-9.5
						c0.9-1.3,2.6-2.4,1-4.1c-1.4-1.5-3.3-2.8-5.2-1.7c-4.5,2.5-7,1.5-10.5-2.6c-2.9-3.4-6.7-7-11.8-8c-2.4-1.1-4.8-2.1-3.4-5.5
						c0.9-0.9,1.9-1.1,3.1-1c1.9,0.5,4.1,0.3,5.5,1.7c4.4,4.1,9.6,4.9,15.3,4.8c1.8,0,3.7,0.5,5.1,1.5c8.1,5.9,18,6.1,27,9.1
						c3.1,1,6.3,1.6,8.8,3.9c0.8,0.8,1.9,1.4,3,1.4c10.6-0.1,18.7,6.8,28.2,9.7c5.8,1.8,11.7,3.6,17.4,5.8c7,2.6,13.7,0.8,19.5-4.9
						c4.3-4.2,9.3-8.2,16.2-7.5c2.9,0.3,5.1-1.1,5.7-4.1c1.1-5.3,4.7-7.7,9.7-8c4.4-0.3,6.1-2.4,6.8-6.6c1.1-6.3,8.3-9.9,14.2-7.6
						c2,0.8,3,2.4,3.4,4.4c0.3,1.6,0.4,3.2,0.4,4.8c0,3.6,1.7,5.2,5.3,5.5c8.3,0.7,9.2,1.9,9.3,10.3c0.1,5.4-0.1,10.7,0.1,16.1
						c0.1,1.5,0,3.8,2.3,3.5c1.8-0.2,1.5-2.2,1.6-3.6c0.1-5.2,0-10.4-0.3-15.5c-0.5-8.6,0.7-17.1,0.4-25.7
						c-0.2-5.3-0.9-10.3-4.3-14.6c-0.2-0.6-0.2-1.1,0-1.7c2.8-6,7.2-8.5,14-7.7c14.2,1.6,28.5,2,42.7,0.4
						c16.6-1.9,33.3-1.5,49.9-1.8c3.9-0.1,7.7-1.2,11.6-1c2.3,0.1,3.4-1.5,4.4-3.3c1.7-1.4,3.3-0.7,4.8,0.3c2.3,2.3,1.7,4.7,0.3,7.1
						c-0.9,1.6-1.9,3.1-1.7,4.9c0.7,7.1-1.8,13.2-5.3,19.3c-3.7,6.5-3.4,14.1-4.3,21.2c-0.7,5.5-1,11-4.1,15.7
						C413.5,238.5,414.9,243.1,412,246.3z"/>
				</g>
				<g>
					<path class="st21" d="M100.3,198.7c-0.4,3,2.2,3,3.9,3.9c4.1,2.8,8.6,5.9,11.3,9.5c3,4,6.6,7.3,9.8,11
						c3.9,4.5,8.2,8.6,12.7,12.5c3.2,2.8,6.4,6,7.1,10.7c-23.1,0.1-46.3,0.2-69.4,0.1c-24.3,0-48.5-0.1-72.8-0.2
						c0-6.2,0-12.3,3.4-17.8c0.6-1,0.4-2.5,0.5-3.8c0.6-4.5,0.2-9.2,4.4-12.7c1.7-1.4,2.7-4.5,2.9-7c0.5-5.6,3.3-10.9,2.4-16.7
						c-0.2-1.5-0.5-3.5,1.1-4.5c6.6-4,5.6-10,4.3-16.1c-0.1-0.6-0.3-1.8-0.2-1.8c4-0.6,4.8-6.7,9.9-5.6c2.1,0.5,4.9,1.8,6.3-1.5
						c3.5-0.4,6,1.8,8.7,3.4c4.4,2.7,8.9,5.3,13,8.4c0.5,0.4,1.1,1,1.6,1c5.6,0.1,8.9,3.6,12.2,7.6c5.3,6.2,13.6,8.5,19.3,14.4
						c0.7,0.8,2.1,0.8,3.2,0.8C98.1,195.1,100.5,195.5,100.3,198.7z"/>
				</g>
				<g>
					<path class="st23" d="M95.4,195.7c-5.1,0.9-6.5-4.5-10.3-6.1c-5.1-2.2-9.9-5.4-13.5-10c-0.5-0.7-1.2-1.1-2-1
						c-1.1,0.1-2.4,1.1-3-0.4c-0.8-2.1,2.1-1.6,2.5-3.2c-12.7-1-20.5-11.4-31.2-16.2c-2-0.7-3.9-1.4-5.9-2.1
						c-0.7-0.3-1.6-0.8-1.4-1.7c0.3-1.3,1.5-0.8,2.4-1c5.3,0.5,9.4,3.7,14,5.9c4.2,2,8.4,4,12.8,5.7c13.4,6.5,26.8,13,40.2,19.6
						c3.7,1.8,6.6,1.9,10.2-0.7c12.4-8.8,25.1-17.2,37.6-25.8c0.4-0.3,0.8-0.3,1.2-0.1c0.3,0.5,0.3,1.3,1.2,1.3
						c1.8,0,3.4,0.3,3.4,2.5c0,2.1-1.7,3.7-3.4,3.5c-7.5-1.1-11.8,4.1-16.8,8.1c-2.1,1.7-5,2.3-2.9,6.6c1.4,2.7-2.2,3.3-4.1,2.5
						c-6.5-2.6-10.4,1.8-14.6,5.1c-1.2,0.9-2.1,1.9-3.7,2c-1.8,0.1-2.8,1-4,2.3c-2.2,2.4-4.9,3.2-7.1-0.2c0-0.4,0.8-1-0.2-1.3
						c-1.2-0.4-1.1,0.4-1.2,1.1C93.1,193.1,95.8,194.5,95.4,195.7z"/>
				</g>
				<g>
					<path class="st24" d="M59.8,165.6c-4.9,0-8.7-3.1-12.9-5c-4.7-2.1-9.3-4.4-13.9-6.6c-0.3-0.7-0.6-1.4-1-2.1
						C41.5,156,50.9,160.3,59.8,165.6z"/>
				</g>
				<g>
					<path class="st25" d="M16.3,73.2c-1.2-0.4-3,1.7-3.6-0.7c-0.8-3,2.1-2.5,3.5-3.4C16.3,70.4,16.3,71.8,16.3,73.2z"/>
				</g>
				<g>
					<path class="st25" d="M42.8,38.9c-1.3-0.1-2.7,1.3-4.4-0.2c1.4-1.2,1.7-3.9,4.1-3.3C44.7,36,43.1,37.7,42.8,38.9
						C42.7,39,42.8,38.9,42.8,38.9z"/>
				</g>
				<g>
					<path class="st25" d="M48.1,33c-0.2,1-1.1,1-1.8,1c-0.8,0-1.8-0.3-1.8-1.2c0-1.2,1-1.5,2.1-1.3C47.4,31.5,48,32,48.1,33z"/>
				</g>
				<g>
					<path class="st23" d="M303.8,181.2c5.8,2,5.5,7.4,5.7,11.8c0.2,8.1,0.3,16.1-0.4,24.2c-0.5,6.1,0.8,12.5,0.6,18.8
						c0,1.3,0,2.6,0,3.9c-0.1,2.4-1.1,4.2-3.6,4.4c-2.8,0.2-3.7-2-3.9-4.1c-0.3-3.9-0.2-7.8-0.2-11.7c0-2.3,0-4.5,0-6.8
						c-0.1-7.3,1.4-8.8-8-8.5c-4.4,0.2-6.7-1.9-6.6-6.4c0-1.1,0-2.3,0-3.4c-0.1-5.7-0.7-5.5-6.2-5.4c-6.5,0.2-8.3,3.3-8.4,8.9
						c-0.1,3.3-1.7,5.2-5.5,5.3c-5.3,0.2-10.4,0.8-10.8,8.1c-0.2,3.9-3.6,4.7-6.9,4.5c-7.7-0.6-12.6,3.7-17,9.1
						c-2.6,3.1-6.8,3.3-10.1,4c-4.5,0.9-9.7,0.8-13.7-2.6c-0.9-0.8-1.7-1.4-2.9-1.6c-10.3-1.6-19.6-5.5-28.5-10.8
						c-1.5-0.9-3.1-1-4.7-1c-4.1,0.1-8.2,0.4-10.7-3.9c-0.4-0.6-1.7-0.7-2.6-1c-8.1-2-16.3-4-24.4-6c-0.9-0.2-2-0.6-2.6-1.3
						c-4-4.8-9.3-4.7-14.7-4.3c-1.9,0.1-3.7,0.3-4.9-1.2c-2.4-3.1-5.9-4.4-9.3-5.8c0.6-4.8,4.4-8.5,9.5-8.2
						c12.4,0.7,23.8-3.9,35.5-6.5c0.9-0.2,1.9-0.6,2.9-0.5c5.1,0.3,8.8-1.3,11.9-5.8c3-4.4,8.2-3.8,12.5-2.5c6.7,2,12.6,0.8,18.8-2
						c5.9-2.6,12.6-2.6,18.9-4.1c2.8-0.7-4.7-21.5-4.5-24.4c13.2-0.1,26.4,0,39.7,0c2.4,0,4.8,0,7-1.4c2.7-3,8.8,17.5,7,17
						c-1.7-0.5-4.1,0.5-4.3-2.5c4.9-0.2,10,0.5,14.5-1.6c0.8,1,0.6,1.5,0.1,2c-4.3,5-4.3,4.9,1.1,7.2c1,0.4,2,1.7,3,0.6
						c1.1-1.1-0.6-1.9-0.8-3c-0.1-0.5,0-0.9,0-1.4c1.7-1.1,3,0.5,3.1,1.2c1,6.9,5.8,1.5,8.5,2.8c0.2-0.6,0.4-1.2,0.6-1.8
						c6,1.6,12.1,2.7,18.4,2.4c1,0,1.9,0.5,2.4,1.4c1.1,4,4.6,3.7,7.5,3.6c16.6-0.4,33.3,0.3,49.9-0.6c13.2-0.7,26.4-1.8,39.7-1.2
						c5.3,0.2,10.5-1.1,15.7-1.2c0.2-1.7-1.6-1.8-1.7-2.9c2.6-1.6,4.7-0.6,6.7,1.2c1.9,3.5,0.2,4.6-3.2,4.8
						c-12.1,0.8-24.2,1.3-36.4,0.9c-10.7-0.3-21.1,1.2-31.7,2.5c-11.7,1.4-23.6,1.2-35.3-0.9c-5.6-1-10.3-1.1-13.3,4.7
						C306.2,179.7,304.8,180.3,303.8,181.2c-5.4,3.4-5.8,4.7-4.5,13C301.3,189.7,298.3,183.9,303.8,181.2z"/>
				</g>
				<g>
					<path class="st28" d="M217.1,165.6c0.2,1,0.8,1.7,1.9,1.9c1.1,0.3,3.2-0.5,3.2,1.2c-0.1,2.2-2.4,1.5-3.9,1.7
						c-9.1,1.2-18.2,2.3-26.8,6.1c-4.7,2.1-10.1,3-15.5,0.5c-5.3-2.5-10.5-0.6-13.5,4.2c-1.1,1.8-2.5,4-4.7,3.7
						c-8-0.9-14.8,3.7-22.5,4.1c-3.1,0.2-6.3,1.3-9.3,2.3c-3.6,1.3-7,1.6-10.9,0.7c-5.7-1.3-8.9,2.6-11.9,6.6c-1,0-1.9,0-2.9,0
						c-1.1-1.9-3-2.5-4.9-3c-0.8-1.2-3.3-0.6-3.1-2.5c0.1-1.6,1.9-1.3,3.1-1.4c0.7-0.6,1.3-0.5,1.9,0.1c4.9,1.6,5.2,1.5,5.9-2.5
						c0.1-0.4,0-1.2,0.5-1c6,2.3,8.2-4.1,12.7-5.6c4-1.4,7.4-4.4,11.7-0.8c0.3,0.2,1.2-0.2,1.9-0.4c-0.4-2.1-3.9-1.8-3.1-4.5
						c0.6-2,2.4-2.3,4-3.2c2.2-1.3,4.2-2.9,6.1-4.6c3.1-2.8,5.6-7,11-4.6c0.6,0.3,1.6-0.1,2.4-0.2c1.4-0.3,2.7-0.9,2.3-2.5
						c-0.6-2-2-1-3.1-0.3c-0.7,0.4-1.3,0.9-2.4,0.6c-0.3-1.7,1.5-2.1,2.1-3.3c3.2-4.7,5.8-0.7,8.6,0.6c0.6,0.3,1.2,0.5,1.5,1.2
						c-0.3-0.9-1.2-1.1-1.6-1.8c-0.6-4.8,4.2-10.3,10-11.5c1.4-0.3,2.9-0.4,4.3-0.2c0.3,0.1,0.6,0.3,0.9,0.3c0.4,0,0.3-0.2-0.1-0.5
						c-0.8-0.6-1.1-1.5-1.1-2.6c1.6-3.5,3.9-3.5,6.7-1.5c-0.2,3.8,1.5,4.7,4.7,3c4.5-2.5,7.4-6.2,7-11.7c2.2-1.6,1.2-3.2,0-4.8
						c0.2-2-0.6-4.1,0.8-6.4c7.1,5.9,14.3,11.6,24.5,12.7c1-1.3-0.9-4.3,0.9-6.4c3.3,4.7,1.3,9.9,1.1,14.9c-0.1,1.4-0.5,2.8-0.4,4.3
						c0.5,6,0.5,6-5.6,7.5c7.3-1.4,4.8,4.3,5.9,7.3C217.3,164.3,217.3,164.9,217.1,165.6z"/>
				</g>
				<g>
					<path class="st23" d="M178.2,141.2c-1.4-0.3-1.9-1.4-0.1-1.3c3.7,0.2,4.3-2.3,4.8-4.8c0.4-1.9,0.7-3.7,2.1-5.3
						c2.7-3.1-2.4-4.5-1.8-7.2c5.7,1.2,5,5.6,4.6,9.6C187.4,136.8,182.8,140.9,178.2,141.2z"/>
				</g>
				<g>
					<path class="st23" d="M189.9,129.6c2.1,0.5,2.9,2,2.6,3.9c-0.2,1.6-1.5,1.4-2.6,0.9C189.9,132.8,189.9,131.2,189.9,129.6z"/>
				</g>
				<g>
					<path class="st21" d="M97.3,191.9c-0.6,0-1.3-0.1-1.9-0.1c-0.7-0.4-1.4-0.7-2-1.1c-0.7-0.4-1.6-0.8-1-1.7
						c0.2-0.4,1.3-0.7,1.6-0.5c2.3,1.3,5.1,1.3,8.1,2.2C100.4,192.3,98.7,191.7,97.3,191.9z"/>
				</g>
				<g>
					<path class="st23" d="M133.4,176c2.3,1,4.3,2.8,6.1,4.8c0.1,0.1-0.3,1-0.5,1.1c-1.3,0.5-2.6,0.5-3.6-0.6
						c-1.2-1.4-3.6-1.8-3.6-4.2C131.8,176.4,132.4,176,133.4,176z"/>
				</g>
				<g>
					<path class="st23" d="M141.1,169.2c1.8,0,2,1.3,2,2.6c0,1.3,0,2.8-1.8,2.8c-1.6,0.1-2.6-0.7-2.7-2.5
						C138.4,170.2,139.7,169.7,141.1,169.2z"/>
				</g>
				<g>
					<path class="st19" d="M172.3,148c0-0.6,0.1-1.2,0.1-1.9c0.6,0.3,1.1,0.6,1.7,0.8c1.4,0.4,2.3,1.2,1.8,2.7
						c-0.3,0.9-1,1.2-1.8,1.1C172.4,150.7,172.4,149.3,172.3,148z"/>
				</g>
				<g>
					<path class="st23" d="M157.7,160.7c0.3-0.6,0.6-1.3,1-1.9c2.4,0.8,3.4,2.5,3.7,5.4C160.2,163.4,158.7,162.3,157.7,160.7z"/>
				</g>
				<g>
					<path class="st23" d="M146.8,177.6c-0.1,0.8-0.6,1.2-1.3,1c-0.9-0.2-1.2-1-1.2-1.8c0-0.7,0.5-1.1,1.3-1
						C146.4,176.1,146.7,176.9,146.8,177.6z"/>
				</g>
				<g>
					<path class="st23" d="M113.8,188.6c-0.7-0.1-1.3-0.5-1.2-1.2c0.1-1,0.8-1.8,2-1.6c0.7,0.1,1.1,0.7,0.9,1.4
						C115.3,188.1,114.7,188.6,113.8,188.6z"/>
				</g>
			</g>
			<g>
				<g>
					<g>
						<path class="st41" d="M104.1,187.8c-1,0-2-0.2-2.9-0.7l-72-36.2c-2-1-3.4-3-3.6-5.3l-6.1-80.1c-0.2-2.3,0.9-4.5,2.8-5.8
							L91,12.7v0c2.4-1.6,5.4-1.9,8-0.6l69.8,33.1c2,1,3.5,3,3.7,5.2l8.1,80.8c0.2,2.3-0.8,4.6-2.7,5.9l-70.1,49.4
							C106.8,187.4,105.5,187.8,104.1,187.8z M34.4,143.6l69.5,34.9l67.7-47.8l-7.8-78.1L95.7,20.4L28.6,66.2L34.4,143.6z"/>
					</g>
					<g>
						<path class="st41" d="M32.6,145.8l-6.1-2.6l35.5-82.7l-37.4,6.6l-1.2-6.6l43.3-7.6c0.3,0,0.5-0.1,0.8-0.1l95.7-5.6
							c2.3-0.1,4.5,0.9,5.9,2.7c1.4,1.8,1.8,4.3,1.1,6.5l-22.6,66.8c-0.8,2.3-2.6,4-4.9,4.5c-2.3,0.6-4.7-0.1-6.5-1.7L68.9,62.1
							c0,0-0.1-0.1-0.3-0.1c-0.2,0-0.2,0.1-0.2,0.2L32.6,145.8z M75.3,59l65.5,62.1c0,0,0.1,0.1,0.3,0.1c0.2,0,0.2-0.2,0.2-0.2
							l22.6-66.8c0,0,0.1-0.2,0-0.3c-0.1-0.1-0.2-0.1-0.3-0.1L75.3,59z"/>
					</g>
					<g>
						
							<rect x="54.5" y="33.2" transform="matrix(0.5823 -0.813 0.813 0.5823 3.3843 79.6031)" class="st41" width="49.4" height="6.7"/>
					</g>
					<g>
						<polygon class="st41" points="33.6,149.1 33.4,142.4 75.3,141.2 141.3,123 173.5,129.7 172.1,136.2 141.5,129.9 76.3,147.8 
													"/>
					</g>
					<g>
						<polygon class="st41" points="71,141.7 63.3,61.9 69.9,61.3 77.6,141.1 						"/>
					</g>
					<g>
						
							<rect x="87.5" y="139.5" transform="matrix(0.8025 -0.5967 0.5967 0.8025 -80.3935 86.7633)" class="st41" width="6.7" height="50.6"/>
					</g>
					<g>
						
							<rect x="90" y="150.9" transform="matrix(0.5589 -0.8292 0.8292 0.5589 -72.8896 171.4262)" class="st41" width="69.3" height="6.7"/>
					</g>
				</g>
			</g>
		</g>
	</g>
</g>
</svg>
